# xmcd
#
# Track frame offsets:
#	150
#	20224
#	38085
#	54201
#	72356
#	92674
#	109776
#	122856
#	141864
#	156624
#	168168
#	181437
#	192326
#	210791
#	221568
#	234217
#	251291
#	265286
#	276405
#	290668
#
# Disc length: 4102 seconds
#
# Revision: 2
# Processed by: cddbd v1.5.1PL0 Copyright (c) Steve Scherf et al.
# Submitted via: dBpowerAMP V4.0
#
DISCID=2a100414
DTITLE=The Sound Studio - Enya
DYEAR=1900
DGENRE=blues
TTITLE0=Orinoco flow
TTITLE1=Caribbean blue
TTITLE2=Only time
TTITLE3=Anywhere
TTITLE4=How can i keep from singing
TTITLE5=Wild child
TTITLE6=Book of days
TTITLE7=Storm in Africa
TTITLE8=Only if
TTITLE9=A day without rain
TTITLE10=The Celts
TTITLE11=Watermark
TTITLE12=Flora's secret
TTITLE13=Tempus Vernum
TTITLE14=Deora ar mo chroi
TTITLE15=Lazy days
TTITLE16=The first of autumn
TTITLE17=Fallen embers
TTITLE18=Pilgrim
TTITLE19=One by one
EXTD=
EXTT0=
EXTT1=
EXTT2=
EXTT3=
EXTT4=
EXTT5=
EXTT6=
EXTT7=
EXTT8=
EXTT9=
EXTT10=
EXTT11=
EXTT12=
EXTT13=
EXTT14=
EXTT15=
EXTT16=
EXTT17=
EXTT18=
EXTT19=
PLAYORDER=
